<svg
  width="470"
  height="160"
  viewbox="0, 0, 470, 160"
  xmlns="http://www.w3.org/2000/svg"
>
  <g color="#a577fe">
    <path
      d="M 10 150 C 10 150 210 10 270 10 C 320 10 360 60 360 60 M 135 90 L 135 150 M 135 110 C 135 100 145 90 155 90 C 165 90 175 100 175 110 L 175 150 M 175 110 C 175 100 185 90 195 90 C 205 90 215 100 215 110 L 215 150 M 240 70 L 240 150 M 230 90 L 250 90 M 275 90 L 275 150 M 275 110 C 275 100 285 90 295 90 C 305 90 315 100 315 110 L 315 150 M 315 110 C 315 100 325 90 335 90 C 345 90 355 100 355 110 L 355 150 M 370 90 L 370 150 M 385 70 L 385 150 M 430 90 C 448 90 460 102 460 120 C 460 138 448 150 430 150 C 412 150 400 138 400 120 C 400 102 412 90 430 90"
      fill="none"
      stroke="currentColor"
      stroke-linecap="round"
      stroke-linejoin="round"
      stroke-width="10"
    />
    <circle cx="370" cy="75" r="5" fill="currentColor" />
    
    <animate 
      attributeName="color"
      dur="10s"
      repeatCount="indefinite"
      calcMode="spline"
      values="
        #ff55b3;
        #1df47f;
        #f8dc00;
        #19e9fe;
        #a577fe;
        #ff55b3"
      keyTimes="
        0;
        0.2;
        0.4;
        0.6;
        0.8;
        1"
      keySplines="
        0.9 0 0.1 1;
        0.9 0 0.1 1;
        0.9 0 0.1 1;
        0.9 0 0.1 1;
        0.9 0 0.1 1"
    />
  </g>
</svg>
