# Blender 3.5.0
# www.blender.org
mtllib room.mtl
o Room
v -7.500000 0.000000 -5.000000
v -6.375000 3.525000 -3.750000
v 7.500000 0.000000 5.000000
v 6.375000 3.525000 3.750000
v 7.500000 0.000000 -5.000000
v 6.375000 3.525000 -3.750000
v 1.500000 0.000000 5.000000
v 0.375000 3.525000 3.750000
v -7.500000 0.000000 9.000000
v -6.375000 3.525000 7.750000
v 1.500000 0.000000 9.000000
v 0.375000 3.525000 7.750000
v -7.500000 3.525000 -5.000000
v 7.500000 3.525000 -5.000000
v 7.500000 3.525000 5.000000
v 1.500000 3.525000 5.000000
v -7.500000 3.525000 9.000000
v 1.500000 3.525000 9.000000
v -6.375000 4.050000 -3.750000
v 0.375000 4.050000 3.750000
v 6.375000 4.050000 -3.750000
v 6.375000 4.050000 3.750000
v -6.375000 4.050000 7.750000
v 0.375000 4.050000 7.750000
vn -0.0000 -0.0000 1.0000
vn -1.0000 -0.0000 -0.0000
vn 1.0000 -0.0000 -0.0000
vn -0.0000 1.0000 -0.0000
vn -0.0000 -0.0000 -1.0000
vn -0.0000 -1.0000 -0.0000
vt 0.375000 0.250000
vt 0.375000 0.000000
vt 0.125000 0.750000
vt 0.856697 0.531250
vt 0.859375 0.750000
vt 0.375000 0.750000
vt 0.646688 0.718750
vt 0.375000 0.500000
vt 0.644273 0.531250
vt 0.250000 0.750000
vt 0.375000 0.875000
vt 0.765625 0.750000
vt 0.375000 0.000000
vt 0.375000 1.000000
vt 0.125000 0.750000
vt 0.859375 0.750000
vt 0.250000 0.750000
vt 0.375000 0.875000
vt 0.765625 0.750000
vt 0.625000 0.250000
vt 0.625000 0.000000
vt 0.875000 0.500000
vt 0.875000 0.750000
vt 0.625000 0.500000
vt 0.625000 0.750000
vt 0.625000 0.875000
vt 0.750000 0.750000
vt 0.625000 0.000000
vt 0.625000 1.000000
vt 0.875000 0.750000
vt 0.625000 0.875000
vt 0.750000 0.750000
vt 0.856697 0.531250
vt 0.859375 0.750000
vt 0.765625 0.750000
vt 0.644273 0.531250
vt 0.646688 0.718750
vt 0.859375 0.750000
vt 0.765625 0.750000
s 0
usemtl Material.001
f 1/1/1 5/8/1 14/24/1 13/20/1
f 5/8/2 3/6/2 15/25/2 14/24/2
f 1/2/3 13/21/3 17/28/3 9/13/3
f 1/3/4 7/10/4 3/6/4 5/8/4
f 8/12/2 12/19/2 24/39/2 20/35/2
f 3/6/5 7/11/5 16/26/5 15/25/5
f 11/18/5 9/14/5 17/29/5 18/31/5
f 7/10/4 1/3/4 9/15/4 11/17/4
f 4/7/5 8/12/5 20/35/5 22/37/5
f 16/26/2 7/11/2 11/18/2 18/31/2
f 6/9/6 2/4/6 13/22/6 14/24/6
f 4/7/6 6/9/6 14/24/6 15/25/6
f 8/12/6 4/7/6 15/25/6 16/27/6
f 10/16/6 12/19/6 18/32/6 17/30/6
f 2/5/6 10/16/6 17/30/6 13/23/6
f 12/19/6 8/12/6 16/27/6 18/32/6
f 21/36/6 22/37/6 20/35/6 19/33/6
f 19/34/6 20/35/6 24/39/6 23/38/6
f 2/4/1 6/9/1 21/36/1 19/33/1
f 12/19/5 10/16/5 23/38/5 24/39/5
f 6/9/2 4/7/2 22/37/2 21/36/2
f 10/16/3 2/5/3 19/34/3 23/38/3
o Counter1
v 2.500000 1.100000 3.400000
v 2.500000 0.000000 2.600000
v 2.500000 1.100000 2.600000
v 7.500000 0.000000 2.600000
v 7.500000 1.100000 2.600000
v 2.500000 0.376852 3.400000
v 7.500000 0.723148 3.400000
v 7.500000 0.376852 3.400000
v 2.500000 0.000000 3.400000
v 7.500000 1.100000 3.400000
v 7.500000 0.000000 3.400000
v 2.500000 0.723148 3.400000
v 2.540102 0.743148 3.400000
v 7.459898 0.743148 3.400000
v 7.459898 1.060000 3.400000
v 2.540102 1.060000 3.400000
v 7.460204 0.396852 3.400000
v 7.460204 0.703148 3.400000
v 2.539796 0.703148 3.400000
v 2.539796 0.396852 3.400000
v 7.459898 0.040000 3.400000
v 7.459898 0.356852 3.400000
v 2.540102 0.356852 3.400000
v 2.540102 0.040000 3.400000
v 7.459898 0.743148 2.640000
v 2.540102 0.743148 2.640000
v 2.540102 1.060000 2.640000
v 7.459898 1.060000 2.640000
v 7.460204 0.396852 2.640000
v 7.460204 0.703148 2.640000
v 2.539796 0.396852 2.640000
v 2.539796 0.703148 2.640000
v 7.459898 0.040000 2.640000
v 7.459898 0.356852 2.640000
v 2.540102 0.040000 2.640000
v 2.540102 0.356852 2.640000
vn -1.0000 -0.0000 -0.0000
vn -0.0000 -0.0000 -1.0000
vn 1.0000 -0.0000 -0.0000
vn -0.0000 1.0000 -0.0000
vn -0.0000 -1.0000 -0.0000
vn -0.0000 -0.0000 1.0000
vt 0.625000 0.000000
vt 0.875000 0.750000
vt 0.625000 1.000000
vt 0.375000 0.250000
vt 0.125000 0.500000
vt 0.625000 0.250000
vt 0.875000 0.500000
vt 0.375000 0.500000
vt 0.625000 0.500000
vt 0.458333 0.000000
vt 0.458333 1.000000
vt 0.541667 0.750000
vt 0.458333 0.750000
vt 0.375000 0.000000
vt 0.125000 0.750000
vt 0.375000 1.000000
vt 0.625000 0.750000
vt 0.375000 0.750000
vt 0.541667 0.000000
vt 0.541667 1.000000
vt 0.553557 0.997312
vt 0.553557 0.752688
vt 0.613110 0.752688
vt 0.613110 0.997312
vt 0.471199 0.752673
vt 0.528801 0.752673
vt 0.528801 0.997327
vt 0.471199 0.997327
vt 0.386890 0.752688
vt 0.446443 0.752688
vt 0.446443 0.997312
vt 0.386890 0.997312
vt 0.553557 0.752688
vt 0.553557 0.997312
vt 0.613110 0.997312
vt 0.613110 0.752688
vt 0.471199 0.752673
vt 0.528801 0.752673
vt 0.471199 0.997327
vt 0.528801 0.997327
vt 0.386890 0.752688
vt 0.446443 0.752688
vt 0.386890 0.997312
vt 0.446443 0.997312
s 0
f 33/53/7 30/49/7 36/58/7 25/40/7 27/45/7 26/43/7
f 26/43/8 27/45/8 29/48/8 28/47/8
f 28/47/9 29/48/9 34/56/9 31/51/9 32/52/9 35/57/9
f 48/71/10 45/68/10 57/80/10 59/82/10
f 26/44/11 28/47/11 35/57/11 33/54/11
f 29/48/10 27/46/10 25/41/10 34/56/10
f 42/65/11 43/66/11 56/79/11 54/77/11
f 39/62/11 40/63/11 51/74/11 52/75/11
f 30/50/12 47/70/12 46/69/12 32/52/12 41/64/12 44/67/12
f 31/51/12 34/56/12 39/62/12 38/61/12
f 34/56/12 25/42/12 40/63/12 39/62/12
f 25/42/12 36/59/12 37/60/12 40/63/12
f 32/52/12 31/51/12 42/65/12 41/64/12
f 36/59/12 30/50/12 44/67/12 43/66/12
f 35/57/12 32/52/12 46/69/12 45/68/12
f 30/50/12 33/55/12 48/71/12 47/70/12
f 33/55/12 35/57/12 45/68/12 48/71/12
f 50/73/12 49/72/12 52/75/12 51/74/12
f 53/76/12 54/77/12 56/79/12 55/78/12
f 57/80/12 58/81/12 60/83/12 59/82/12
f 37/60/10 38/61/10 49/72/10 50/73/10
f 43/66/9 44/67/9 55/78/9 56/79/9
f 46/69/11 47/70/11 60/83/11 58/81/11
f 40/63/9 37/60/9 50/73/9 51/74/9
f 41/64/7 42/65/7 54/77/7 53/76/7
f 47/70/9 48/71/9 59/82/9 60/83/9
f 38/61/7 39/62/7 52/75/7 49/72/7
f 44/67/10 41/64/10 53/76/10 55/78/10
f 45/68/7 46/69/7 58/81/7 57/80/7
f 36/59/12 43/66/12 42/65/12 31/51/12 38/61/12 37/60/12
o Counter2
v 7.500000 1.100000 4.600000
v 7.500000 0.000000 5.000000
v 7.500000 1.100000 5.000000
v 2.500000 0.000000 5.000000
v 2.500000 1.100000 5.000000
v 7.500000 0.376852 4.600000
v 2.500000 0.723148 4.600000
v 2.500000 0.376852 4.600000
v 7.500000 0.000000 4.600000
v 2.500000 1.100000 4.600000
v 2.500000 0.000000 4.600000
v 7.500000 0.723148 4.600000
v 7.459898 0.743148 4.600000
v 2.540102 0.743148 4.600000
v 2.540102 1.060000 4.600000
v 7.459898 1.060000 4.600000
v 2.539796 0.396852 4.600000
v 2.539796 0.703148 4.600000
v 7.460204 0.703148 4.600000
v 7.460204 0.396852 4.600000
v 2.540102 0.040000 4.600000
v 2.540102 0.356852 4.600000
v 7.459898 0.356852 4.600000
v 7.459898 0.040000 4.600000
v 2.540102 0.743148 4.960001
v 7.459898 0.743148 4.960000
v 7.459898 1.060000 4.960000
v 2.540102 1.060000 4.960001
v 2.539796 0.396852 4.960001
v 2.539796 0.703148 4.960001
v 7.460204 0.396852 4.960000
v 7.460204 0.703148 4.960000
v 2.540102 0.040000 4.960001
v 2.540102 0.356852 4.960001
v 7.459898 0.040000 4.960000
v 7.459898 0.356852 4.960000
vn 1.0000 -0.0000 -0.0000
vn -0.0000 -0.0000 1.0000
vn -1.0000 -0.0000 -0.0000
vn -0.0000 1.0000 -0.0000
vn -0.0000 -1.0000 -0.0000
vn -0.0000 -0.0000 -1.0000
vt 0.625000 0.000000
vt 0.875000 0.750000
vt 0.625000 1.000000
vt 0.375000 0.250000
vt 0.125000 0.500000
vt 0.625000 0.250000
vt 0.875000 0.500000
vt 0.375000 0.500000
vt 0.625000 0.500000
vt 0.458333 0.000000
vt 0.458333 1.000000
vt 0.541667 0.750000
vt 0.458333 0.750000
vt 0.375000 0.000000
vt 0.125000 0.750000
vt 0.375000 1.000000
vt 0.625000 0.750000
vt 0.375000 0.750000
vt 0.541667 0.000000
vt 0.541667 1.000000
vt 0.553557 0.997312
vt 0.553557 0.752688
vt 0.613110 0.752688
vt 0.613110 0.997312
vt 0.471199 0.752673
vt 0.528801 0.752673
vt 0.528801 0.997327
vt 0.471199 0.997327
vt 0.386890 0.752688
vt 0.446443 0.752688
vt 0.446443 0.997312
vt 0.386890 0.997312
vt 0.553557 0.752688
vt 0.553557 0.997312
vt 0.613110 0.997312
vt 0.613110 0.752688
vt 0.471199 0.752673
vt 0.528801 0.752673
vt 0.471199 0.997327
vt 0.528801 0.997327
vt 0.386890 0.752688
vt 0.446443 0.752688
vt 0.386890 0.997312
vt 0.446443 0.997312
s 0
f 69/97/13 66/93/13 72/102/13 61/84/13 63/89/13 62/87/13
f 62/87/14 63/89/14 65/92/14 64/91/14
f 64/91/15 65/92/15 70/100/15 67/95/15 68/96/15 71/101/15
f 84/115/16 81/112/16 93/124/16 95/126/16
f 62/88/17 64/91/17 71/101/17 69/98/17
f 65/92/16 63/90/16 61/85/16 70/100/16
f 78/109/17 79/110/17 92/123/17 90/121/17
f 75/106/17 76/107/17 87/118/17 88/119/17
f 66/94/18 83/114/18 82/113/18 68/96/18 77/108/18 80/111/18
f 67/95/18 70/100/18 75/106/18 74/105/18
f 70/100/18 61/86/18 76/107/18 75/106/18
f 61/86/18 72/103/18 73/104/18 76/107/18
f 68/96/18 67/95/18 78/109/18 77/108/18
f 72/103/18 66/94/18 80/111/18 79/110/18
f 71/101/18 68/96/18 82/113/18 81/112/18
f 66/94/18 69/99/18 84/115/18 83/114/18
f 69/99/18 71/101/18 81/112/18 84/115/18
f 86/117/18 85/116/18 88/119/18 87/118/18
f 89/120/18 90/121/18 92/123/18 91/122/18
f 93/124/18 94/125/18 96/127/18 95/126/18
f 73/104/16 74/105/16 85/116/16 86/117/16
f 79/110/15 80/111/15 91/122/15 92/123/15
f 82/113/17 83/114/17 96/127/17 94/125/17
f 76/107/15 73/104/15 86/117/15 87/118/15
f 77/108/13 78/109/13 90/121/13 89/120/13
f 83/114/15 84/115/15 95/126/15 96/127/15
f 74/105/13 75/106/13 88/119/13 85/116/13
f 80/111/16 77/108/16 89/120/16 91/122/16
f 81/112/13 82/113/13 94/125/13 93/124/13
f 72/103/18 79/110/18 78/109/18 67/95/18 74/105/18 73/104/18
