<svg
  xmlns="http://www.w3.org/2000/svg"
  width="100%"
  height="100%"
>
  <style>
    <!--
      Style configuration
      This must be manually updated to align with index.css
    -->
    :root {
      --palette-accent1: #ff55b3;
      --palette-accent2: #1df47f;
      --palette-accent3: #f8dc00;
      --palette-accent4: #19e9fe;
      --palette-accent5: #a577fe;
    }
  </style>

  <defs>
    <!--
      Pattern definition
      The pattern is just a 4x4 grid of shapes,
      offset to give the impression of a random scatter
    -->
    <pattern
      id="BackgroundPattern"
      height="100"
      width="100"
      fill="none"
      patternTransform="scale(4) rotate(0)"
      patternUnits="userSpaceOnUse"
      stroke-linecap="round"
      stroke-linejoin="round"
      stroke-width="2"
      vector-effect="non-scaling-stroke"
    >
      <!-- <use href="#BackgroundDebugBounds" /> -->
      
      <!-- Row 1 -->
      <use
        href="#BackgroundShapeTriangle"
        stroke="var(--palette-accent1)"
        transform="translate(13 16) rotate(100) scale(0.1)"
      />
      
      <use
        href="#BackgroundShapeSquiggle"
        stroke="var(--palette-accent2)"
        transform="translate(31 13) rotate(130) scale(0.2)"
      />
      
      <use
        href="#BackgroundShapeCross"
        stroke="var(--palette-accent3)"
        transform="translate(65 12) rotate(20) scale(0.1)"
      />
      
      <use
        href="#BackgroundShapeChevron"
        stroke="var(--palette-accent4)"
        transform="translate(86 6) rotate(200) scale(0.1)"
      />
      
      <!-- Row 2 -->
      <!-- Duplicate shape to create a seamless illusion -->
      <use
        href="#BackgroundShapeZigzag"
        stroke="var(--palette-accent3)"
        transform="translate(4 37) rotate(40) scale(0.2)"
      />
      <use
        href="#BackgroundShapeZigzag"
        stroke="var(--palette-accent3)"
        transform="translate(104 37) rotate(40) scale(0.2)"
      />
      
      <use
        href="#BackgroundShapeSquare"
        stroke="var(--palette-accent4)"
        transform="translate(36 39) rotate(30) scale(0.1)"
      />
      
      <use
        href="#BackgroundShapeSquiggle"
        stroke="var(--palette-accent5)"
        transform="translate(66 38) rotate(75) scale(0.2)"
      />
      
      <use
        href="#BackgroundShapeCircle"
        stroke="var(--palette-accent1)"
        transform="translate(81 32) rotate(0) scale(0.1)"
      />
      
      <!-- Row 3 -->
      <use
        href="#BackgroundShapeCross"
        stroke="var(--palette-accent5)"
        transform="translate(13 58) rotate(60) scale(0.1)"
      />
      
      <use
        href="#BackgroundShapeSquiggle"
        stroke="var(--palette-accent1)"
        transform="translate(33 63) rotate(160) scale(0.2)"
      />
      
      <use
        href="#BackgroundShapeChevron"
        stroke="var(--palette-accent2)"
        transform="translate(60 57) rotate(20) scale(0.1)"
      />
      
      <use
        href="#BackgroundShapeSquare"
        stroke="var(--palette-accent3)"
        transform="translate(88 62) rotate(70) scale(0.1)"
      />
      
      <!-- Row 4 -->
      <use
        href="#BackgroundShapeCircle"
        stroke="var(--palette-accent2)"
        transform="translate(11 90) rotate(0) scale(0.1)"
      />
      
      <use
        href="#BackgroundShapeTriangle"
        stroke="var(--palette-accent3)"
        transform="translate(37 89) rotate(10) scale(0.1)"
      />
      
      <use
        href="#BackgroundShapeZigzag"
        stroke="var(--palette-accent4)"
        transform="translate(58 79) rotate(190) scale(0.2)"
      />
      
      <use
        href="#BackgroundShapeTriangle"
        stroke="var(--palette-accent5)"
        transform="translate(85 85) rotate(40) scale(0.1)"
      />
    </pattern>

    <!--
      Shape definitions
      These are used by the above pattern definition
    -->
    <!-- Debug Bounds -->
    <rect
      id="BackgroundDebugBounds"
      x="0"
      y="0"
      width="100"
      height="100"
      fill="none"
      stroke="red"
      stroke-width="0.5"
    ></rect>

    <!-- Squiggle -->
    <path
      id="BackgroundShapeSquiggle"
      d="M -45 -10
        c 7.5 0, 7.5 15, 15 15
        c 7.5 0, 7.5 -15, 15 -15
        c 7.5 0, 7.5 15, 15 15
        c 7.5 0, 7.5 -15, 15 -15
        c 7.5 0, 7.5 15, 15 15
        c 7.5 0, 7.5 -15, 15 -15"
      vector-effect="non-scaling-stroke"
    />

    <!-- Zigzag -->
    <path
      id="BackgroundShapeZigzag"
      d="M -45 -10
        l 15 15, 15 -15, 15 15, 15 -15, 15 15, 15 -15"
      vector-effect="non-scaling-stroke"
    />

    <!-- Triangle -->
    <polygon
      id="BackgroundShapeTriangle"
      points="0 -50, 50 35, -50 35"
      vector-effect="non-scaling-stroke"
    />

    <!-- Square -->
    <rect
      id="BackgroundShapeSquare"
      x="-45"
      y="-45"
      width="90"
      height="90"
      vector-effect="non-scaling-stroke"
    />

    <!-- Cross -->
    <path
      id="BackgroundShapeCross"
      d="M -45 -45 L 45 45
        M -45 45 L 45 -45"
      vector-effect="non-scaling-stroke"
    />

    <!-- Circle -->
    <circle
      id="BackgroundShapeCircle"
      cx="0"
      cy="0"
      r="45"
      vector-effect="non-scaling-stroke"
    />

    <!-- Chevron -->
    <path
      id="BackgroundShapeChevron"
      d="M -45 22.5
        L 0 -22.5 45 22.5"
      vector-effect="non-scaling-stroke"
    />
  </defs>

  <!--
    Rendered pattern
    This is a rectanglar region filled with the defined pattern
  -->
  <rect width="100%" height="100%" fill="url(#BackgroundPattern)"></rect>
</svg>